<svg width="163" height="191" viewBox="0 0 163 191" fill="none" xmlns="http://www.w3.org/2000/svg">
<g id="Group 1193">
<path id="Rectangle 1786" d="M67.7796 8.88246L80.2529 0L80.0676 87.5994L63.849 98.6259C63.849 98.6259 68.5676 88.7178 70.0817 81.7798C71.5454 75.0731 71.5698 64.0149 71.5698 64.0149L67.7796 8.88246Z" fill="url(#paint0_linear_3_73)"/>
<path id="Rectangle 1787" d="M92.0858 10.7206L80.254 0.000382756L80.0675 87.5997L95.9884 98.9325C95.9884 98.9325 91.611 88.9855 90.2213 82.3927C88.7874 75.59 88.9697 64.9341 88.9697 64.9341L92.0858 10.7206Z" fill="url(#paint1_linear_3_73)"/>
<path id="Rectangle 1788" d="M16.5764 11.6392L24.7806 22.9719L24.0513 113.634L15.3644 118.229L16.5764 11.6392Z" fill="url(#paint2_linear_3_73)"/>
<path id="Rectangle 1789" d="M24.7806 22.9722L33.7046 45.0252L33.7848 105.058L24.0513 113.634L24.7806 22.9722Z" fill="url(#paint3_linear_3_73)"/>
<path id="Rectangle 1790" d="M33.7046 45.0249L24.7806 22.9719L16.5764 11.6392L37.4358 22.9719L47.9032 45.0249L60.6096 97.4008L42.4547 83.0051L33.7046 45.0249Z" fill="url(#paint4_linear_3_73)"/>
<path id="Rectangle 1797" d="M125.222 46.2499L131.346 23.5843L140.851 13.1704L119.012 20.7034L108.704 40.3192L99.2309 97.7069L117.419 85.1489L125.222 46.2499Z" fill="url(#paint5_linear_3_73)"/>
<path id="Rectangle 1791" d="M33.7617 92.5001L42.4165 82.6987L60.6095 97.4007L41.1546 104.752L33.7848 105.058L33.7617 92.5001Z" fill="url(#paint6_linear_3_73)"/>
<path id="Rectangle 1792" d="M15.3644 118.229L24.0513 113.634L25.8348 137.831H55.4667L80.9762 164.172L81.7251 182.55L50.0544 146.407H18.2619L15.3644 118.229Z" fill="url(#paint7_linear_3_73)"/>
<path id="Rectangle 1793" d="M145.892 117.923L134.362 112.103L135.411 137.831L104.233 137.831L80.9739 164.172L81.7228 182.55L109.895 146.1L146.011 146.1L145.892 117.923Z" fill="url(#paint8_linear_3_73)"/>
<path id="Rectangle 1794" d="M32.0936 131.093H130.249L135.411 137.832H25.8348L32.0936 131.093Z" fill="url(#paint9_linear_3_73)"/>
<path id="Rectangle 1796" d="M131.346 23.5843L140.851 13.1704L145.93 118.228L134.401 112.409L131.346 23.5843Z" fill="url(#paint10_linear_3_73)"/>
<path id="Rectangle 1798" d="M125.222 46.2505L131.346 23.585L134.401 112.41L127.46 108.734L125.222 46.2505Z" fill="url(#paint11_linear_3_73)"/>
<path id="Rectangle 1800" d="M48.7706 123.742L56.5436 109.346C56.5436 109.346 59.6385 107.832 61.1001 106.283C62.7761 104.508 64.0709 103.332 64.1164 100.77C64.1312 99.9411 63.849 98.6261 63.849 98.6261L80.0675 87.5996L80.4727 103.22L55.4666 137.831L49.6875 131.093L48.7706 123.742Z" fill="url(#paint12_linear_3_73)"/>
<path id="Rectangle 1801" d="M110.927 124.661L103.384 108.734C103.384 108.734 100.678 107.11 99.2982 105.671C97.7964 104.104 96.7953 103.09 96.2558 101.076C96.0337 100.247 95.9884 98.9324 95.9884 98.9324L80.0675 87.5996L80.4727 103.22L104.236 137.831L111.729 131.093L110.927 124.661Z" fill="url(#paint13_linear_3_73)"/>
<path id="Rectangle 1802" d="M74.1344 111.797L80.3781 117.31L86.481 111.797L94.0297 122.823L83.9512 160.804L80.9761 164.173L77.8161 161.11L65.9794 123.13L74.1344 111.797Z" fill="url(#paint14_linear_3_73)"/>
<path id="Rectangle 1803" d="M41.1546 104.752L48.5274 101.995C48.5274 101.995 48.7258 103.529 49.1417 104.445C50.0543 106.457 51.3349 107.435 53.3423 108.427C54.5269 109.013 56.5436 109.346 56.5436 109.346L53.295 115.472C53.295 115.472 49.1877 112.912 46.8573 110.878C44.3917 108.725 41.1546 104.752 41.1546 104.752Z" fill="url(#paint15_linear_3_73)"/>
<path id="Rectangle 1804" d="M33.7466 104.752H41.1545C41.1545 104.752 44.3917 108.725 46.8573 110.878C49.1876 112.912 53.295 115.472 53.295 115.472L48.7706 123.742C48.7706 123.742 43.3477 121.788 40.2486 119.76C37.0823 117.688 32.9643 113.328 32.9643 113.328L33.7466 104.752Z" fill="url(#paint16_radial_3_73)"/>
<path id="Rectangle 1805" d="M24.0513 113.634L33.7466 104.752L32.0936 131.093L25.8348 137.831L25.303 131.093L24.0513 113.634Z" fill="url(#paint17_linear_3_73)"/>
<path id="Rectangle 1806" d="M103.384 108.734C103.384 108.734 107.618 109.201 109.443 107.815C110.87 106.731 111.724 103.833 111.724 103.833L119.282 107.509C119.282 107.509 117.458 111.685 115.416 113.634C112.968 115.971 107.579 117.616 107.579 117.616L103.384 108.734Z" fill="url(#paint18_linear_3_73)"/>
</g>
<defs>
<linearGradient id="paint0_linear_3_73" x1="66.9962" y1="49.6192" x2="80.1436" y2="49.5566" gradientUnits="userSpaceOnUse">
<stop stop-color="#ED9D02"/>
<stop offset="0.857292" stop-color="#F5E00C"/>
<stop offset="1" stop-color="#FFFDEA"/>
</linearGradient>
<linearGradient id="paint1_linear_3_73" x1="80.6629" y1="42.8811" x2="91.6063" y2="42.7765" gradientUnits="userSpaceOnUse">
<stop stop-color="#FFFAC8"/>
<stop offset="1" stop-color="#F5DB0B"/>
</linearGradient>
<linearGradient id="paint2_linear_3_73" x1="15.6663" y1="61.2584" x2="24.178" y2="61.4675" gradientUnits="userSpaceOnUse">
<stop stop-color="#FAEC5B"/>
<stop offset="1" stop-color="#F5DD0C"/>
</linearGradient>
<linearGradient id="paint3_linear_3_73" x1="24.9171" y1="68.6096" x2="34.0368" y2="68.7397" gradientUnits="userSpaceOnUse">
<stop stop-color="#CB882F"/>
<stop offset="1" stop-color="#F4CB2D"/>
</linearGradient>
<linearGradient id="paint4_linear_3_73" x1="34.5803" y1="54.52" x2="49.8736" y2="49.1229" gradientUnits="userSpaceOnUse">
<stop stop-color="#F8E630"/>
<stop offset="1" stop-color="#FFFBD7"/>
</linearGradient>
<linearGradient id="paint5_linear_3_73" x1="103.677" y1="59.1141" x2="123.808" y2="63.9196" gradientUnits="userSpaceOnUse">
<stop stop-color="#FFFCDD"/>
<stop offset="1" stop-color="#F9E739"/>
</linearGradient>
<linearGradient id="paint6_linear_3_73" x1="33.5586" y1="100.77" x2="50.2862" y2="88.7349" gradientUnits="userSpaceOnUse">
<stop stop-color="#EFAA28"/>
<stop offset="1" stop-color="#F8E630"/>
</linearGradient>
<linearGradient id="paint7_linear_3_73" x1="16.4099" y1="146.407" x2="79.5623" y2="145.777" gradientUnits="userSpaceOnUse">
<stop stop-color="#FFC601"/>
<stop offset="0.4875" stop-color="#E27A00"/>
<stop offset="1" stop-color="#FFD300"/>
</linearGradient>
<linearGradient id="paint8_linear_3_73" x1="113.675" y1="109.521" x2="104.211" y2="185.356" gradientUnits="userSpaceOnUse">
<stop stop-color="#FFC700"/>
<stop offset="0.497917" stop-color="#E2A300"/>
<stop offset="0.930208" stop-color="#FFD200"/>
</linearGradient>
<linearGradient id="paint9_linear_3_73" x1="26.5316" y1="135.994" x2="134.429" y2="122.535" gradientUnits="userSpaceOnUse">
<stop stop-color="#E19500"/>
<stop offset="1" stop-color="#F6E00D"/>
</linearGradient>
<linearGradient id="paint10_linear_3_73" x1="132.418" y1="61.8708" x2="144.046" y2="62.0039" gradientUnits="userSpaceOnUse">
<stop stop-color="#F8E630"/>
<stop offset="1" stop-color="#FAC746"/>
</linearGradient>
<linearGradient id="paint11_linear_3_73" x1="126.344" y1="75.0419" x2="132.88" y2="74.854" gradientUnits="userSpaceOnUse">
<stop stop-color="#F4C72C"/>
<stop offset="1" stop-color="#E7A619"/>
</linearGradient>
<linearGradient id="paint12_linear_3_73" x1="62.165" y1="87.5996" x2="62.165" y2="137.831" gradientUnits="userSpaceOnUse">
<stop stop-color="#ED9E03"/>
<stop offset="0.305208" stop-color="#FFEC48"/>
<stop offset="0.551318" stop-color="#FFF29D"/>
<stop offset="0.726178" stop-color="#FDE240"/>
<stop offset="1" stop-color="#F4C328"/>
</linearGradient>
<linearGradient id="paint13_linear_3_73" x1="92.4141" y1="87.5996" x2="92.4141" y2="137.831" gradientUnits="userSpaceOnUse">
<stop offset="0.117708" stop-color="#F1B706"/>
<stop offset="0.555208" stop-color="#FFFAC8"/>
<stop offset="1" stop-color="#F6DE1A"/>
</linearGradient>
<linearGradient id="paint14_linear_3_73" x1="66.2086" y1="124.967" x2="93.9463" y2="124.334" gradientUnits="userSpaceOnUse">
<stop stop-color="#ED9E03"/>
<stop offset="0.315625" stop-color="#F4D60B"/>
<stop offset="0.500496" stop-color="#FAE2B4"/>
<stop offset="0.690625" stop-color="#F6DE19"/>
<stop offset="1" stop-color="#E0C700"/>
</linearGradient>
<linearGradient id="paint15_linear_3_73" x1="48.2187" y1="101.995" x2="48.2187" y2="115.472" gradientUnits="userSpaceOnUse">
<stop stop-color="#F7DD2F"/>
<stop offset="1" stop-color="#EFAA28"/>
</linearGradient>
<radialGradient id="paint16_radial_3_73" cx="0" cy="0" r="1" gradientUnits="userSpaceOnUse" gradientTransform="translate(46.5104 110.571) rotate(126.82) scale(11.4785 20.9431)">
<stop offset="0.451042" stop-color="#ED9E03"/>
<stop offset="1" stop-color="#F4C72C"/>
</radialGradient>
<linearGradient id="paint17_linear_3_73" x1="27.882" y1="104.752" x2="27.882" y2="131.093" gradientUnits="userSpaceOnUse">
<stop stop-color="#CB882F"/>
<stop offset="1" stop-color="#FFA800"/>
</linearGradient>
<linearGradient id="paint18_linear_3_73" x1="110.798" y1="103.833" x2="110.798" y2="117.616" gradientUnits="userSpaceOnUse">
<stop stop-color="#F7DD2F"/>
<stop offset="1" stop-color="#F0AC29"/>
</linearGradient>
</defs>
</svg>
